<?xml version="1.0" encoding="utf-8" standalone="no"?>
<!DOCTYPE svg PUBLIC "-//W3C//DTD SVG 1.1//EN"
  "http://www.w3.org/Graphics/SVG/1.1/DTD/svg11.dtd">
<!-- Created with matplotlib (https://matplotlib.org/) -->
<svg height="276.8975pt" version="1.1" viewBox="0 0 370.1 276.8975" width="370.1pt" xmlns="http://www.w3.org/2000/svg" xmlns:xlink="http://www.w3.org/1999/xlink">
 <defs>
  <style type="text/css">
*{stroke-linecap:butt;stroke-linejoin:round;}
  </style>
 </defs>
 <g id="figure_1">
  <g id="patch_1">
   <path d="M 0 276.8975 
L 370.1 276.8975 
L 370.1 0 
L 0 0 
z
" style="fill:none;"/>
  </g>
  <g id="axes_1">
   <g id="patch_2">
    <path d="M 28.1 239.229375 
L 362.9 239.229375 
L 362.9 21.789375 
L 28.1 21.789375 
z
" style="fill:none;"/>
   </g>
   <g id="matplotlib.axis_1">
    <g id="xtick_1">
     <g id="line2d_1">
      <path clip-path="url(#pe81367a733)" d="M 41.659722 239.229375 
L 41.659722 21.789375 
" style="fill:none;stroke:#cccccc;stroke-linecap:round;"/>
     </g>
     <g id="line2d_2"/>
     <g id="text_1">
      <!-- 0.0 -->
      <defs>
       <path d="M 4.15625 35.296875 
Q 4.15625 48 6.765625 55.734375 
Q 9.375 63.484375 14.515625 67.671875 
Q 19.671875 71.875 27.484375 71.875 
Q 33.25 71.875 37.59375 69.546875 
Q 41.9375 67.234375 44.765625 62.859375 
Q 47.609375 58.5 49.21875 52.21875 
Q 50.828125 45.953125 50.828125 35.296875 
Q 50.828125 22.703125 48.234375 14.96875 
Q 45.65625 7.234375 40.5 3 
Q 35.359375 -1.21875 27.484375 -1.21875 
Q 17.140625 -1.21875 11.234375 6.203125 
Q 4.15625 15.140625 4.15625 35.296875 
z
M 13.1875 35.296875 
Q 13.1875 17.671875 17.3125 11.828125 
Q 21.4375 6 27.484375 6 
Q 33.546875 6 37.671875 11.859375 
Q 41.796875 17.71875 41.796875 35.296875 
Q 41.796875 52.984375 37.671875 58.78125 
Q 33.546875 64.59375 27.390625 64.59375 
Q 21.34375 64.59375 17.71875 59.46875 
Q 13.1875 52.9375 13.1875 35.296875 
z
" id="ArialMT-48"/>
       <path d="M 9.078125 0 
L 9.078125 10.015625 
L 19.09375 10.015625 
L 19.09375 0 
z
" id="ArialMT-46"/>
      </defs>
      <g style="fill:#262626;" transform="translate(34.709722 253.387188)scale(0.1 -0.1)">
       <use xlink:href="#ArialMT-48"/>
       <use x="55.615234" xlink:href="#ArialMT-46"/>
       <use x="83.398438" xlink:href="#ArialMT-48"/>
      </g>
     </g>
    </g>
    <g id="xtick_2">
     <g id="line2d_3">
      <path clip-path="url(#pe81367a733)" d="M 103.982088 239.229375 
L 103.982088 21.789375 
" style="fill:none;stroke:#cccccc;stroke-linecap:round;"/>
     </g>
     <g id="line2d_4"/>
     <g id="text_2">
      <!-- 0.2 -->
      <defs>
       <path d="M 50.34375 8.453125 
L 50.34375 0 
L 3.03125 0 
Q 2.9375 3.171875 4.046875 6.109375 
Q 5.859375 10.9375 9.828125 15.625 
Q 13.8125 20.3125 21.34375 26.46875 
Q 33.015625 36.03125 37.109375 41.625 
Q 41.21875 47.21875 41.21875 52.203125 
Q 41.21875 57.421875 37.46875 61 
Q 33.734375 64.59375 27.734375 64.59375 
Q 21.390625 64.59375 17.578125 60.78125 
Q 13.765625 56.984375 13.71875 50.25 
L 4.6875 51.171875 
Q 5.609375 61.28125 11.65625 66.578125 
Q 17.71875 71.875 27.9375 71.875 
Q 38.234375 71.875 44.234375 66.15625 
Q 50.25 60.453125 50.25 52 
Q 50.25 47.703125 48.484375 43.546875 
Q 46.734375 39.40625 42.65625 34.8125 
Q 38.578125 30.21875 29.109375 22.21875 
Q 21.1875 15.578125 18.9375 13.203125 
Q 16.703125 10.84375 15.234375 8.453125 
z
" id="ArialMT-50"/>
      </defs>
      <g style="fill:#262626;" transform="translate(97.032088 253.387188)scale(0.1 -0.1)">
       <use xlink:href="#ArialMT-48"/>
       <use x="55.615234" xlink:href="#ArialMT-46"/>
       <use x="83.398438" xlink:href="#ArialMT-50"/>
      </g>
     </g>
    </g>
    <g id="xtick_3">
     <g id="line2d_5">
      <path clip-path="url(#pe81367a733)" d="M 166.304454 239.229375 
L 166.304454 21.789375 
" style="fill:none;stroke:#cccccc;stroke-linecap:round;"/>
     </g>
     <g id="line2d_6"/>
     <g id="text_3">
      <!-- 0.4 -->
      <defs>
       <path d="M 32.328125 0 
L 32.328125 17.140625 
L 1.265625 17.140625 
L 1.265625 25.203125 
L 33.9375 71.578125 
L 41.109375 71.578125 
L 41.109375 25.203125 
L 50.78125 25.203125 
L 50.78125 17.140625 
L 41.109375 17.140625 
L 41.109375 0 
z
M 32.328125 25.203125 
L 32.328125 57.46875 
L 9.90625 25.203125 
z
" id="ArialMT-52"/>
      </defs>
      <g style="fill:#262626;" transform="translate(159.354454 253.387188)scale(0.1 -0.1)">
       <use xlink:href="#ArialMT-48"/>
       <use x="55.615234" xlink:href="#ArialMT-46"/>
       <use x="83.398438" xlink:href="#ArialMT-52"/>
      </g>
     </g>
    </g>
    <g id="xtick_4">
     <g id="line2d_7">
      <path clip-path="url(#pe81367a733)" d="M 228.62682 239.229375 
L 228.62682 21.789375 
" style="fill:none;stroke:#cccccc;stroke-linecap:round;"/>
     </g>
     <g id="line2d_8"/>
     <g id="text_4">
      <!-- 0.6 -->
      <defs>
       <path d="M 49.75 54.046875 
L 41.015625 53.375 
Q 39.84375 58.546875 37.703125 60.890625 
Q 34.125 64.65625 28.90625 64.65625 
Q 24.703125 64.65625 21.53125 62.3125 
Q 17.390625 59.28125 14.984375 53.46875 
Q 12.59375 47.65625 12.5 36.921875 
Q 15.671875 41.75 20.265625 44.09375 
Q 24.859375 46.4375 29.890625 46.4375 
Q 38.671875 46.4375 44.84375 39.96875 
Q 51.03125 33.5 51.03125 23.25 
Q 51.03125 16.5 48.125 10.71875 
Q 45.21875 4.9375 40.140625 1.859375 
Q 35.0625 -1.21875 28.609375 -1.21875 
Q 17.625 -1.21875 10.6875 6.859375 
Q 3.765625 14.9375 3.765625 33.5 
Q 3.765625 54.25 11.421875 63.671875 
Q 18.109375 71.875 29.4375 71.875 
Q 37.890625 71.875 43.28125 67.140625 
Q 48.6875 62.40625 49.75 54.046875 
z
M 13.875 23.1875 
Q 13.875 18.65625 15.796875 14.5 
Q 17.71875 10.359375 21.1875 8.171875 
Q 24.65625 6 28.46875 6 
Q 34.03125 6 38.03125 10.484375 
Q 42.046875 14.984375 42.046875 22.703125 
Q 42.046875 30.125 38.078125 34.390625 
Q 34.125 38.671875 28.125 38.671875 
Q 22.171875 38.671875 18.015625 34.390625 
Q 13.875 30.125 13.875 23.1875 
z
" id="ArialMT-54"/>
      </defs>
      <g style="fill:#262626;" transform="translate(221.67682 253.387188)scale(0.1 -0.1)">
       <use xlink:href="#ArialMT-48"/>
       <use x="55.615234" xlink:href="#ArialMT-46"/>
       <use x="83.398438" xlink:href="#ArialMT-54"/>
      </g>
     </g>
    </g>
    <g id="xtick_5">
     <g id="line2d_9">
      <path clip-path="url(#pe81367a733)" d="M 290.949186 239.229375 
L 290.949186 21.789375 
" style="fill:none;stroke:#cccccc;stroke-linecap:round;"/>
     </g>
     <g id="line2d_10"/>
     <g id="text_5">
      <!-- 0.8 -->
      <defs>
       <path d="M 17.671875 38.8125 
Q 12.203125 40.828125 9.5625 44.53125 
Q 6.9375 48.25 6.9375 53.421875 
Q 6.9375 61.234375 12.546875 66.546875 
Q 18.171875 71.875 27.484375 71.875 
Q 36.859375 71.875 42.578125 66.421875 
Q 48.296875 60.984375 48.296875 53.171875 
Q 48.296875 48.1875 45.671875 44.5 
Q 43.0625 40.828125 37.75 38.8125 
Q 44.34375 36.671875 47.78125 31.875 
Q 51.21875 27.09375 51.21875 20.453125 
Q 51.21875 11.28125 44.71875 5.03125 
Q 38.234375 -1.21875 27.640625 -1.21875 
Q 17.046875 -1.21875 10.546875 5.046875 
Q 4.046875 11.328125 4.046875 20.703125 
Q 4.046875 27.6875 7.59375 32.390625 
Q 11.140625 37.109375 17.671875 38.8125 
z
M 15.921875 53.71875 
Q 15.921875 48.640625 19.1875 45.40625 
Q 22.46875 42.1875 27.6875 42.1875 
Q 32.765625 42.1875 36.015625 45.375 
Q 39.265625 48.578125 39.265625 53.21875 
Q 39.265625 58.0625 35.90625 61.359375 
Q 32.5625 64.65625 27.59375 64.65625 
Q 22.5625 64.65625 19.234375 61.421875 
Q 15.921875 58.203125 15.921875 53.71875 
z
M 13.09375 20.65625 
Q 13.09375 16.890625 14.875 13.375 
Q 16.65625 9.859375 20.171875 7.921875 
Q 23.6875 6 27.734375 6 
Q 34.03125 6 38.125 10.046875 
Q 42.234375 14.109375 42.234375 20.359375 
Q 42.234375 26.703125 38.015625 30.859375 
Q 33.796875 35.015625 27.4375 35.015625 
Q 21.234375 35.015625 17.15625 30.90625 
Q 13.09375 26.8125 13.09375 20.65625 
z
" id="ArialMT-56"/>
      </defs>
      <g style="fill:#262626;" transform="translate(283.999186 253.387188)scale(0.1 -0.1)">
       <use xlink:href="#ArialMT-48"/>
       <use x="55.615234" xlink:href="#ArialMT-46"/>
       <use x="83.398438" xlink:href="#ArialMT-56"/>
      </g>
     </g>
    </g>
    <g id="xtick_6">
     <g id="line2d_11">
      <path clip-path="url(#pe81367a733)" d="M 353.271552 239.229375 
L 353.271552 21.789375 
" style="fill:none;stroke:#cccccc;stroke-linecap:round;"/>
     </g>
     <g id="line2d_12"/>
     <g id="text_6">
      <!-- 1.0 -->
      <defs>
       <path d="M 37.25 0 
L 28.46875 0 
L 28.46875 56 
Q 25.296875 52.984375 20.140625 49.953125 
Q 14.984375 46.921875 10.890625 45.40625 
L 10.890625 53.90625 
Q 18.265625 57.375 23.78125 62.296875 
Q 29.296875 67.234375 31.59375 71.875 
L 37.25 71.875 
z
" id="ArialMT-49"/>
      </defs>
      <g style="fill:#262626;" transform="translate(346.321552 253.387188)scale(0.1 -0.1)">
       <use xlink:href="#ArialMT-49"/>
       <use x="55.615234" xlink:href="#ArialMT-46"/>
       <use x="83.398438" xlink:href="#ArialMT-48"/>
      </g>
     </g>
    </g>
    <g id="text_7">
     <!-- Threshold (above this probability, label as churn) -->
     <defs>
      <path d="M 25.921875 0 
L 25.921875 63.140625 
L 2.34375 63.140625 
L 2.34375 71.578125 
L 59.078125 71.578125 
L 59.078125 63.140625 
L 35.40625 63.140625 
L 35.40625 0 
z
" id="ArialMT-84"/>
      <path d="M 6.59375 0 
L 6.59375 71.578125 
L 15.375 71.578125 
L 15.375 45.90625 
Q 21.53125 53.03125 30.90625 53.03125 
Q 36.671875 53.03125 40.921875 50.75 
Q 45.171875 48.484375 47 44.484375 
Q 48.828125 40.484375 48.828125 32.859375 
L 48.828125 0 
L 40.046875 0 
L 40.046875 32.859375 
Q 40.046875 39.453125 37.1875 42.453125 
Q 34.328125 45.453125 29.109375 45.453125 
Q 25.203125 45.453125 21.75 43.421875 
Q 18.3125 41.40625 16.84375 37.9375 
Q 15.375 34.46875 15.375 28.375 
L 15.375 0 
z
" id="ArialMT-104"/>
      <path d="M 6.5 0 
L 6.5 51.859375 
L 14.40625 51.859375 
L 14.40625 44 
Q 17.4375 49.515625 20 51.265625 
Q 22.5625 53.03125 25.640625 53.03125 
Q 30.078125 53.03125 34.671875 50.203125 
L 31.640625 42.046875 
Q 28.421875 43.953125 25.203125 43.953125 
Q 22.3125 43.953125 20.015625 42.21875 
Q 17.71875 40.484375 16.75 37.40625 
Q 15.28125 32.71875 15.28125 27.15625 
L 15.28125 0 
z
" id="ArialMT-114"/>
      <path d="M 42.09375 16.703125 
L 51.171875 15.578125 
Q 49.03125 7.625 43.21875 3.21875 
Q 37.40625 -1.171875 28.375 -1.171875 
Q 17 -1.171875 10.328125 5.828125 
Q 3.65625 12.84375 3.65625 25.484375 
Q 3.65625 38.578125 10.390625 45.796875 
Q 17.140625 53.03125 27.875 53.03125 
Q 38.28125 53.03125 44.875 45.953125 
Q 51.46875 38.875 51.46875 26.03125 
Q 51.46875 25.25 51.421875 23.6875 
L 12.75 23.6875 
Q 13.234375 15.140625 17.578125 10.59375 
Q 21.921875 6.0625 28.421875 6.0625 
Q 33.25 6.0625 36.671875 8.59375 
Q 40.09375 11.140625 42.09375 16.703125 
z
M 13.234375 30.90625 
L 42.1875 30.90625 
Q 41.609375 37.453125 38.875 40.71875 
Q 34.671875 45.796875 27.984375 45.796875 
Q 21.921875 45.796875 17.796875 41.75 
Q 13.671875 37.703125 13.234375 30.90625 
z
" id="ArialMT-101"/>
      <path d="M 3.078125 15.484375 
L 11.765625 16.84375 
Q 12.5 11.625 15.84375 8.84375 
Q 19.1875 6.0625 25.203125 6.0625 
Q 31.25 6.0625 34.171875 8.515625 
Q 37.109375 10.984375 37.109375 14.3125 
Q 37.109375 17.28125 34.515625 19 
Q 32.71875 20.171875 25.53125 21.96875 
Q 15.875 24.421875 12.140625 26.203125 
Q 8.40625 27.984375 6.46875 31.125 
Q 4.546875 34.28125 4.546875 38.09375 
Q 4.546875 41.546875 6.125 44.5 
Q 7.71875 47.46875 10.453125 49.421875 
Q 12.5 50.921875 16.03125 51.96875 
Q 19.578125 53.03125 23.640625 53.03125 
Q 29.734375 53.03125 34.34375 51.265625 
Q 38.96875 49.515625 41.15625 46.5 
Q 43.359375 43.5 44.1875 38.484375 
L 35.59375 37.3125 
Q 35.015625 41.3125 32.203125 43.546875 
Q 29.390625 45.796875 24.265625 45.796875 
Q 18.21875 45.796875 15.625 43.796875 
Q 13.03125 41.796875 13.03125 39.109375 
Q 13.03125 37.40625 14.109375 36.03125 
Q 15.1875 34.625 17.484375 33.6875 
Q 18.796875 33.203125 25.25 31.453125 
Q 34.578125 28.953125 38.25 27.359375 
Q 41.9375 25.78125 44.03125 22.75 
Q 46.140625 19.734375 46.140625 15.234375 
Q 46.140625 10.84375 43.578125 6.953125 
Q 41.015625 3.078125 36.171875 0.953125 
Q 31.34375 -1.171875 25.25 -1.171875 
Q 15.140625 -1.171875 9.84375 3.03125 
Q 4.546875 7.234375 3.078125 15.484375 
z
" id="ArialMT-115"/>
      <path d="M 3.328125 25.921875 
Q 3.328125 40.328125 11.328125 47.265625 
Q 18.015625 53.03125 27.640625 53.03125 
Q 38.328125 53.03125 45.109375 46.015625 
Q 51.90625 39.015625 51.90625 26.65625 
Q 51.90625 16.65625 48.90625 10.90625 
Q 45.90625 5.171875 40.15625 2 
Q 34.421875 -1.171875 27.640625 -1.171875 
Q 16.75 -1.171875 10.03125 5.8125 
Q 3.328125 12.796875 3.328125 25.921875 
z
M 12.359375 25.921875 
Q 12.359375 15.96875 16.703125 11.015625 
Q 21.046875 6.0625 27.640625 6.0625 
Q 34.1875 6.0625 38.53125 11.03125 
Q 42.875 16.015625 42.875 26.21875 
Q 42.875 35.84375 38.5 40.796875 
Q 34.125 45.75 27.640625 45.75 
Q 21.046875 45.75 16.703125 40.8125 
Q 12.359375 35.890625 12.359375 25.921875 
z
" id="ArialMT-111"/>
      <path d="M 6.390625 0 
L 6.390625 71.578125 
L 15.1875 71.578125 
L 15.1875 0 
z
" id="ArialMT-108"/>
      <path d="M 40.234375 0 
L 40.234375 6.546875 
Q 35.296875 -1.171875 25.734375 -1.171875 
Q 19.53125 -1.171875 14.328125 2.25 
Q 9.125 5.671875 6.265625 11.796875 
Q 3.421875 17.921875 3.421875 25.875 
Q 3.421875 33.640625 6 39.96875 
Q 8.59375 46.296875 13.765625 49.65625 
Q 18.953125 53.03125 25.34375 53.03125 
Q 30.03125 53.03125 33.6875 51.046875 
Q 37.359375 49.078125 39.65625 45.90625 
L 39.65625 71.578125 
L 48.390625 71.578125 
L 48.390625 0 
z
M 12.453125 25.875 
Q 12.453125 15.921875 16.640625 10.984375 
Q 20.84375 6.0625 26.5625 6.0625 
Q 32.328125 6.0625 36.34375 10.765625 
Q 40.375 15.484375 40.375 25.140625 
Q 40.375 35.796875 36.265625 40.765625 
Q 32.171875 45.75 26.171875 45.75 
Q 20.3125 45.75 16.375 40.96875 
Q 12.453125 36.1875 12.453125 25.875 
z
" id="ArialMT-100"/>
      <path id="ArialMT-32"/>
      <path d="M 23.390625 -21.046875 
Q 16.109375 -11.859375 11.078125 0.4375 
Q 6.0625 12.75 6.0625 25.921875 
Q 6.0625 37.546875 9.8125 48.1875 
Q 14.203125 60.546875 23.390625 72.796875 
L 29.6875 72.796875 
Q 23.78125 62.640625 21.875 58.296875 
Q 18.890625 51.5625 17.1875 44.234375 
Q 15.09375 35.109375 15.09375 25.875 
Q 15.09375 2.390625 29.6875 -21.046875 
z
" id="ArialMT-40"/>
      <path d="M 40.4375 6.390625 
Q 35.546875 2.25 31.03125 0.53125 
Q 26.515625 -1.171875 21.34375 -1.171875 
Q 12.796875 -1.171875 8.203125 3 
Q 3.609375 7.171875 3.609375 13.671875 
Q 3.609375 17.484375 5.34375 20.625 
Q 7.078125 23.78125 9.890625 25.6875 
Q 12.703125 27.59375 16.21875 28.5625 
Q 18.796875 29.25 24.03125 29.890625 
Q 34.671875 31.15625 39.703125 32.90625 
Q 39.75 34.71875 39.75 35.203125 
Q 39.75 40.578125 37.25 42.78125 
Q 33.890625 45.75 27.25 45.75 
Q 21.046875 45.75 18.09375 43.578125 
Q 15.140625 41.40625 13.71875 35.890625 
L 5.125 37.0625 
Q 6.296875 42.578125 8.984375 45.96875 
Q 11.671875 49.359375 16.75 51.1875 
Q 21.828125 53.03125 28.515625 53.03125 
Q 35.15625 53.03125 39.296875 51.46875 
Q 43.453125 49.90625 45.40625 47.53125 
Q 47.359375 45.171875 48.140625 41.546875 
Q 48.578125 39.3125 48.578125 33.453125 
L 48.578125 21.734375 
Q 48.578125 9.46875 49.140625 6.21875 
Q 49.703125 2.984375 51.375 0 
L 42.1875 0 
Q 40.828125 2.734375 40.4375 6.390625 
z
M 39.703125 26.03125 
Q 34.90625 24.078125 25.34375 22.703125 
Q 19.921875 21.921875 17.671875 20.9375 
Q 15.4375 19.96875 14.203125 18.09375 
Q 12.984375 16.21875 12.984375 13.921875 
Q 12.984375 10.40625 15.640625 8.0625 
Q 18.3125 5.71875 23.4375 5.71875 
Q 28.515625 5.71875 32.46875 7.9375 
Q 36.421875 10.15625 38.28125 14.015625 
Q 39.703125 17 39.703125 22.796875 
z
" id="ArialMT-97"/>
      <path d="M 14.703125 0 
L 6.546875 0 
L 6.546875 71.578125 
L 15.328125 71.578125 
L 15.328125 46.046875 
Q 20.90625 53.03125 29.546875 53.03125 
Q 34.328125 53.03125 38.59375 51.09375 
Q 42.875 49.171875 45.625 45.671875 
Q 48.390625 42.1875 49.953125 37.25 
Q 51.515625 32.328125 51.515625 26.703125 
Q 51.515625 13.375 44.921875 6.09375 
Q 38.328125 -1.171875 29.109375 -1.171875 
Q 19.921875 -1.171875 14.703125 6.5 
z
M 14.59375 26.3125 
Q 14.59375 17 17.140625 12.84375 
Q 21.296875 6.0625 28.375 6.0625 
Q 34.125 6.0625 38.328125 11.0625 
Q 42.53125 16.0625 42.53125 25.984375 
Q 42.53125 36.140625 38.5 40.96875 
Q 34.46875 45.796875 28.765625 45.796875 
Q 23 45.796875 18.796875 40.796875 
Q 14.59375 35.796875 14.59375 26.3125 
z
" id="ArialMT-98"/>
      <path d="M 21 0 
L 1.265625 51.859375 
L 10.546875 51.859375 
L 21.6875 20.796875 
Q 23.484375 15.765625 25 10.359375 
Q 26.171875 14.453125 28.265625 20.21875 
L 39.796875 51.859375 
L 48.828125 51.859375 
L 29.203125 0 
z
" id="ArialMT-118"/>
      <path d="M 25.78125 7.859375 
L 27.046875 0.09375 
Q 23.34375 -0.6875 20.40625 -0.6875 
Q 15.625 -0.6875 12.984375 0.828125 
Q 10.359375 2.34375 9.28125 4.8125 
Q 8.203125 7.28125 8.203125 15.1875 
L 8.203125 45.015625 
L 1.765625 45.015625 
L 1.765625 51.859375 
L 8.203125 51.859375 
L 8.203125 64.703125 
L 16.9375 69.96875 
L 16.9375 51.859375 
L 25.78125 51.859375 
L 25.78125 45.015625 
L 16.9375 45.015625 
L 16.9375 14.703125 
Q 16.9375 10.9375 17.40625 9.859375 
Q 17.875 8.796875 18.921875 8.15625 
Q 19.96875 7.515625 21.921875 7.515625 
Q 23.390625 7.515625 25.78125 7.859375 
z
" id="ArialMT-116"/>
      <path d="M 6.640625 61.46875 
L 6.640625 71.578125 
L 15.4375 71.578125 
L 15.4375 61.46875 
z
M 6.640625 0 
L 6.640625 51.859375 
L 15.4375 51.859375 
L 15.4375 0 
z
" id="ArialMT-105"/>
      <path d="M 6.59375 -19.875 
L 6.59375 51.859375 
L 14.59375 51.859375 
L 14.59375 45.125 
Q 17.4375 49.078125 21 51.046875 
Q 24.5625 53.03125 29.640625 53.03125 
Q 36.28125 53.03125 41.359375 49.609375 
Q 46.4375 46.1875 49.015625 39.953125 
Q 51.609375 33.734375 51.609375 26.3125 
Q 51.609375 18.359375 48.75 11.984375 
Q 45.90625 5.609375 40.453125 2.21875 
Q 35.015625 -1.171875 29 -1.171875 
Q 24.609375 -1.171875 21.109375 0.6875 
Q 17.625 2.546875 15.375 5.375 
L 15.375 -19.875 
z
M 14.546875 25.640625 
Q 14.546875 15.625 18.59375 10.84375 
Q 22.65625 6.0625 28.421875 6.0625 
Q 34.28125 6.0625 38.453125 11.015625 
Q 42.625 15.96875 42.625 26.375 
Q 42.625 36.28125 38.546875 41.203125 
Q 34.46875 46.140625 28.8125 46.140625 
Q 23.1875 46.140625 18.859375 40.890625 
Q 14.546875 35.640625 14.546875 25.640625 
z
" id="ArialMT-112"/>
      <path d="M 6.203125 -19.96875 
L 5.21875 -11.71875 
Q 8.109375 -12.5 10.25 -12.5 
Q 13.1875 -12.5 14.9375 -11.515625 
Q 16.703125 -10.546875 17.828125 -8.796875 
Q 18.65625 -7.46875 20.515625 -2.25 
Q 20.75 -1.515625 21.296875 -0.09375 
L 1.609375 51.859375 
L 11.078125 51.859375 
L 21.875 21.828125 
Q 23.96875 16.109375 25.640625 9.8125 
Q 27.15625 15.875 29.25 21.625 
L 40.328125 51.859375 
L 49.125 51.859375 
L 29.390625 -0.875 
Q 26.21875 -9.421875 24.46875 -12.640625 
Q 22.125 -17 19.09375 -19.015625 
Q 16.0625 -21.046875 11.859375 -21.046875 
Q 9.328125 -21.046875 6.203125 -19.96875 
z
" id="ArialMT-121"/>
      <path d="M 8.890625 0 
L 8.890625 10.015625 
L 18.890625 10.015625 
L 18.890625 0 
Q 18.890625 -5.515625 16.9375 -8.90625 
Q 14.984375 -12.3125 10.75 -14.15625 
L 8.296875 -10.40625 
Q 11.078125 -9.1875 12.390625 -6.8125 
Q 13.71875 -4.4375 13.875 0 
z
" id="ArialMT-44"/>
      <path d="M 40.4375 19 
L 49.078125 17.875 
Q 47.65625 8.9375 41.8125 3.875 
Q 35.984375 -1.171875 27.484375 -1.171875 
Q 16.84375 -1.171875 10.375 5.78125 
Q 3.90625 12.75 3.90625 25.734375 
Q 3.90625 34.125 6.6875 40.421875 
Q 9.46875 46.734375 15.15625 49.875 
Q 20.84375 53.03125 27.546875 53.03125 
Q 35.984375 53.03125 41.359375 48.75 
Q 46.734375 44.484375 48.25 36.625 
L 39.703125 35.296875 
Q 38.484375 40.53125 35.375 43.15625 
Q 32.28125 45.796875 27.875 45.796875 
Q 21.234375 45.796875 17.078125 41.03125 
Q 12.9375 36.28125 12.9375 25.984375 
Q 12.9375 15.53125 16.9375 10.796875 
Q 20.953125 6.0625 27.390625 6.0625 
Q 32.5625 6.0625 36.03125 9.234375 
Q 39.5 12.40625 40.4375 19 
z
" id="ArialMT-99"/>
      <path d="M 40.578125 0 
L 40.578125 7.625 
Q 34.515625 -1.171875 24.125 -1.171875 
Q 19.53125 -1.171875 15.546875 0.578125 
Q 11.578125 2.34375 9.640625 5 
Q 7.71875 7.671875 6.9375 11.53125 
Q 6.390625 14.109375 6.390625 19.734375 
L 6.390625 51.859375 
L 15.1875 51.859375 
L 15.1875 23.09375 
Q 15.1875 16.21875 15.71875 13.8125 
Q 16.546875 10.359375 19.234375 8.375 
Q 21.921875 6.390625 25.875 6.390625 
Q 29.828125 6.390625 33.296875 8.421875 
Q 36.765625 10.453125 38.203125 13.9375 
Q 39.65625 17.4375 39.65625 24.078125 
L 39.65625 51.859375 
L 48.4375 51.859375 
L 48.4375 0 
z
" id="ArialMT-117"/>
      <path d="M 6.59375 0 
L 6.59375 51.859375 
L 14.5 51.859375 
L 14.5 44.484375 
Q 20.21875 53.03125 31 53.03125 
Q 35.6875 53.03125 39.625 51.34375 
Q 43.5625 49.65625 45.515625 46.921875 
Q 47.46875 44.1875 48.25 40.4375 
Q 48.734375 37.984375 48.734375 31.890625 
L 48.734375 0 
L 39.9375 0 
L 39.9375 31.546875 
Q 39.9375 36.921875 38.90625 39.578125 
Q 37.890625 42.234375 35.28125 43.8125 
Q 32.671875 45.40625 29.15625 45.40625 
Q 23.53125 45.40625 19.453125 41.84375 
Q 15.375 38.28125 15.375 28.328125 
L 15.375 0 
z
" id="ArialMT-110"/>
      <path d="M 12.359375 -21.046875 
L 6.0625 -21.046875 
Q 20.65625 2.390625 20.65625 25.875 
Q 20.65625 35.0625 18.5625 44.09375 
Q 16.890625 51.421875 13.921875 58.15625 
Q 12.015625 62.546875 6.0625 72.796875 
L 12.359375 72.796875 
Q 21.53125 60.546875 25.921875 48.1875 
Q 29.6875 37.546875 29.6875 25.921875 
Q 29.6875 12.75 24.625 0.4375 
Q 19.578125 -11.859375 12.359375 -21.046875 
z
" id="ArialMT-41"/>
     </defs>
     <g style="fill:#262626;" transform="translate(76.896797 267.382344)scale(0.11 -0.11)">
      <use xlink:href="#ArialMT-84"/>
      <use x="61.083984" xlink:href="#ArialMT-104"/>
      <use x="116.699219" xlink:href="#ArialMT-114"/>
      <use x="150" xlink:href="#ArialMT-101"/>
      <use x="205.615234" xlink:href="#ArialMT-115"/>
      <use x="255.615234" xlink:href="#ArialMT-104"/>
      <use x="311.230469" xlink:href="#ArialMT-111"/>
      <use x="366.845703" xlink:href="#ArialMT-108"/>
      <use x="389.0625" xlink:href="#ArialMT-100"/>
      <use x="444.677734" xlink:href="#ArialMT-32"/>
      <use x="472.460938" xlink:href="#ArialMT-40"/>
      <use x="505.761719" xlink:href="#ArialMT-97"/>
      <use x="561.376953" xlink:href="#ArialMT-98"/>
      <use x="616.992188" xlink:href="#ArialMT-111"/>
      <use x="672.607422" xlink:href="#ArialMT-118"/>
      <use x="722.607422" xlink:href="#ArialMT-101"/>
      <use x="778.222656" xlink:href="#ArialMT-32"/>
      <use x="806.005859" xlink:href="#ArialMT-116"/>
      <use x="833.789062" xlink:href="#ArialMT-104"/>
      <use x="889.404297" xlink:href="#ArialMT-105"/>
      <use x="911.621094" xlink:href="#ArialMT-115"/>
      <use x="961.621094" xlink:href="#ArialMT-32"/>
      <use x="989.404297" xlink:href="#ArialMT-112"/>
      <use x="1045.019531" xlink:href="#ArialMT-114"/>
      <use x="1078.320312" xlink:href="#ArialMT-111"/>
      <use x="1133.935547" xlink:href="#ArialMT-98"/>
      <use x="1189.550781" xlink:href="#ArialMT-97"/>
      <use x="1245.166016" xlink:href="#ArialMT-98"/>
      <use x="1300.78125" xlink:href="#ArialMT-105"/>
      <use x="1322.998047" xlink:href="#ArialMT-108"/>
      <use x="1345.214844" xlink:href="#ArialMT-105"/>
      <use x="1367.431641" xlink:href="#ArialMT-116"/>
      <use x="1395.214844" xlink:href="#ArialMT-121"/>
      <use x="1445.105469" xlink:href="#ArialMT-44"/>
      <use x="1472.888672" xlink:href="#ArialMT-32"/>
      <use x="1500.671875" xlink:href="#ArialMT-108"/>
      <use x="1522.888672" xlink:href="#ArialMT-97"/>
      <use x="1578.503906" xlink:href="#ArialMT-98"/>
      <use x="1634.119141" xlink:href="#ArialMT-101"/>
      <use x="1689.734375" xlink:href="#ArialMT-108"/>
      <use x="1711.951172" xlink:href="#ArialMT-32"/>
      <use x="1739.734375" xlink:href="#ArialMT-97"/>
      <use x="1795.349609" xlink:href="#ArialMT-115"/>
      <use x="1845.349609" xlink:href="#ArialMT-32"/>
      <use x="1873.132812" xlink:href="#ArialMT-99"/>
      <use x="1923.132812" xlink:href="#ArialMT-104"/>
      <use x="1978.748047" xlink:href="#ArialMT-117"/>
      <use x="2034.363281" xlink:href="#ArialMT-114"/>
      <use x="2067.664062" xlink:href="#ArialMT-110"/>
      <use x="2123.279297" xlink:href="#ArialMT-41"/>
     </g>
    </g>
   </g>
   <g id="matplotlib.axis_2">
    <g id="ytick_1">
     <g id="line2d_13">
      <path clip-path="url(#pe81367a733)" d="M 28.1 229.345739 
L 362.9 229.345739 
" style="fill:none;stroke:#cccccc;stroke-linecap:round;"/>
     </g>
     <g id="line2d_14"/>
     <g id="text_8">
      <!-- 0.0 -->
      <g style="fill:#262626;" transform="translate(7.2 232.924645)scale(0.1 -0.1)">
       <use xlink:href="#ArialMT-48"/>
       <use x="55.615234" xlink:href="#ArialMT-46"/>
       <use x="83.398438" xlink:href="#ArialMT-48"/>
      </g>
     </g>
    </g>
    <g id="ytick_2">
     <g id="line2d_15">
      <path clip-path="url(#pe81367a733)" d="M 28.1 189.811193 
L 362.9 189.811193 
" style="fill:none;stroke:#cccccc;stroke-linecap:round;"/>
     </g>
     <g id="line2d_16"/>
     <g id="text_9">
      <!-- 0.2 -->
      <g style="fill:#262626;" transform="translate(7.2 193.390099)scale(0.1 -0.1)">
       <use xlink:href="#ArialMT-48"/>
       <use x="55.615234" xlink:href="#ArialMT-46"/>
       <use x="83.398438" xlink:href="#ArialMT-50"/>
      </g>
     </g>
    </g>
    <g id="ytick_3">
     <g id="line2d_17">
      <path clip-path="url(#pe81367a733)" d="M 28.1 150.276648 
L 362.9 150.276648 
" style="fill:none;stroke:#cccccc;stroke-linecap:round;"/>
     </g>
     <g id="line2d_18"/>
     <g id="text_10">
      <!-- 0.4 -->
      <g style="fill:#262626;" transform="translate(7.2 153.855554)scale(0.1 -0.1)">
       <use xlink:href="#ArialMT-48"/>
       <use x="55.615234" xlink:href="#ArialMT-46"/>
       <use x="83.398438" xlink:href="#ArialMT-52"/>
      </g>
     </g>
    </g>
    <g id="ytick_4">
     <g id="line2d_19">
      <path clip-path="url(#pe81367a733)" d="M 28.1 110.742102 
L 362.9 110.742102 
" style="fill:none;stroke:#cccccc;stroke-linecap:round;"/>
     </g>
     <g id="line2d_20"/>
     <g id="text_11">
      <!-- 0.6 -->
      <g style="fill:#262626;" transform="translate(7.2 114.321009)scale(0.1 -0.1)">
       <use xlink:href="#ArialMT-48"/>
       <use x="55.615234" xlink:href="#ArialMT-46"/>
       <use x="83.398438" xlink:href="#ArialMT-54"/>
      </g>
     </g>
    </g>
    <g id="ytick_5">
     <g id="line2d_21">
      <path clip-path="url(#pe81367a733)" d="M 28.1 71.207557 
L 362.9 71.207557 
" style="fill:none;stroke:#cccccc;stroke-linecap:round;"/>
     </g>
     <g id="line2d_22"/>
     <g id="text_12">
      <!-- 0.8 -->
      <g style="fill:#262626;" transform="translate(7.2 74.786463)scale(0.1 -0.1)">
       <use xlink:href="#ArialMT-48"/>
       <use x="55.615234" xlink:href="#ArialMT-46"/>
       <use x="83.398438" xlink:href="#ArialMT-56"/>
      </g>
     </g>
    </g>
    <g id="ytick_6">
     <g id="line2d_23">
      <path clip-path="url(#pe81367a733)" d="M 28.1 31.673011 
L 362.9 31.673011 
" style="fill:none;stroke:#cccccc;stroke-linecap:round;"/>
     </g>
     <g id="line2d_24"/>
     <g id="text_13">
      <!-- 1.0 -->
      <g style="fill:#262626;" transform="translate(7.2 35.251918)scale(0.1 -0.1)">
       <use xlink:href="#ArialMT-49"/>
       <use x="55.615234" xlink:href="#ArialMT-46"/>
       <use x="83.398438" xlink:href="#ArialMT-48"/>
      </g>
     </g>
    </g>
   </g>
   <g id="line2d_25">
    <path clip-path="url(#pe81367a733)" d="M 43.318182 194.397053 
L 43.512585 194.033692 
L 43.639048 193.798502 
L 43.663124 194.040295 
L 43.743666 193.938842 
L 45.420496 191.441484 
L 45.519093 191.28453 
L 45.646196 190.926588 
L 46.465962 189.68325 
L 46.586476 189.511365 
L 46.774457 189.206953 
L 46.914451 188.942302 
L 47.133537 188.719079 
L 47.304454 188.493375 
L 47.666188 188.219198 
L 47.786013 188.080725 
L 48.439737 187.552076 
L 48.532079 187.360142 
L 48.993421 186.624413 
L 49.10694 186.524363 
L 49.392459 186.068278 
L 49.64188 185.86244 
L 49.714869 185.654634 
L 50.05349 185.444833 
L 50.265099 185.072791 
L 50.334535 184.857351 
L 50.389041 185.043934 
L 50.469667 184.935749 
L 50.485367 184.827034 
L 50.688686 184.66296 
L 50.70157 184.85114 
L 50.719025 185.039783 
L 50.78779 184.875484 
L 51.692168 183.805946 
L 51.87299 183.574191 
L 52.000103 183.222102 
L 52.058805 183.103533 
L 52.369687 182.92453 
L 52.567903 182.623094 
L 52.726508 182.379112 
L 52.908227 182.194446 
L 53.161841 182.008322 
L 53.370664 181.69483 
L 53.421768 181.631632 
L 53.480767 181.83078 
L 53.517649 181.704242 
L 53.881517 181.126381 
L 53.975316 181.530309 
L 53.987513 181.465606 
L 54.686836 180.808814 
L 54.700693 180.742142 
L 54.995905 180.541024 
L 55.399363 180.202102 
L 55.404949 180.133752 
L 55.465913 180.340522 
L 55.572096 180.203636 
L 55.599386 180.411371 
L 55.7942 180.82859 
L 55.837957 180.760448 
L 56.022108 180.554868 
L 56.42186 179.998054 
L 56.536176 179.856858 
L 56.661573 179.50031 
L 56.7865 179.356248 
L 56.799451 179.283905 
L 56.999257 179.065612 
L 57.754127 178.399159 
L 58.180338 177.482579 
L 58.703497 176.693186 
L 58.812733 176.914253 
L 58.851333 176.753912 
L 58.964339 176.511553 
L 59.088083 176.266951 
L 59.404274 176.490434 
L 60.734297 175.406651 
L 60.789996 175.633718 
L 61.126696 175.463474 
L 61.130415 175.377946 
L 61.276011 175.206074 
L 61.597421 174.771567 
L 63.117572 172.961478 
L 63.267616 172.773843 
L 63.476626 171.913798 
L 63.782813 171.621275 
L 64 171.325757 
L 64.26316 171.127059 
L 64.521901 170.926994 
L 64.596083 170.624307 
L 64.6835 170.522713 
L 64.860581 170.763353 
L 64.900925 170.661648 
L 65.657012 170.04392 
L 65.814388 169.41305 
L 66.155739 169.092554 
L 66.485455 168.550709 
L 66.960046 168.110166 
L 66.987717 168.357783 
L 67.418524 168.135605 
L 67.508009 167.799285 
L 68.075544 167.573011 
L 68.150598 167.459249 
L 68.309015 167.961232 
L 68.397756 167.847557 
L 68.657426 167.503992 
L 68.683567 167.757408 
L 68.810695 167.52674 
L 68.838925 167.410757 
L 68.842945 167.665903 
L 68.856816 167.433149 
L 69.187396 167.198631 
L 69.299197 166.843505 
L 69.571232 166.604491 
L 69.983353 166.484297 
L 70.049777 166.743051 
L 70.069836 166.622662 
L 70.458162 166.258698 
L 70.587122 166.0137 
L 70.659313 165.642614 
L 71.1345 165.014378 
L 71.570249 164.887241 
L 71.656745 164.631453 
L 71.764924 164.502796 
L 72.269278 164.243942 
L 72.390593 163.851763 
L 72.714692 163.053056 
L 72.942198 162.91804 
L 73.398975 162.782473 
L 73.428763 162.509673 
L 73.766649 162.372433 
L 73.820453 162.096254 
L 74.14428 161.817788 
L 74.265792 162.087798 
L 74.758888 161.52497 
L 75.122007 161.240009 
L 75.173301 161.512782 
L 75.222532 161.369674 
L 75.763234 160.791154 
L 76.25215 160.644983 
L 76.367294 160.202703 
L 76.565364 159.754692 
L 77.079706 159.300837 
L 77.903011 158.994965 
L 78.32751 158.531113 
L 78.532741 158.810536 
L 78.883434 158.341344 
L 79.124867 158.183557 
L 79.130687 158.025066 
L 79.610295 158.307102 
L 80.175979 157.988543 
L 80.425656 157.342777 
L 80.794255 157.015491 
L 81.221452 156.518944 
L 81.836521 156.015533 
L 81.886463 155.84618 
L 81.888916 156.133617 
L 82.068629 155.963752 
L 82.075906 155.793096 
L 82.305933 155.449392 
L 82.317856 155.276333 
L 82.517199 155.102461 
L 82.629425 154.752257 
L 82.696899 154.575913 
L 83.082338 154.398733 
L 83.224154 154.041843 
L 83.735917 153.681537 
L 84.317993 153.134567 
L 85.022114 152.579631 
L 85.081191 152.392852 
L 85.353226 152.016554 
L 85.387463 151.827022 
L 85.867417 151.636558 
L 86.011083 151.445156 
L 86.62563 151.252809 
L 86.986297 150.276648 
L 87.207822 150.5739 
L 87.38172 150.177064 
L 87.521097 149.77621 
L 87.74135 149.574257 
L 88.015976 149.87426 
L 88.861816 148.642145 
L 89.41084 148.433068 
L 89.516295 148.222905 
L 90.428178 148.52642 
L 90.558212 148.831521 
L 90.772307 147.981766 
L 91.014688 147.766518 
L 91.085481 147.550127 
L 91.361656 147.332586 
L 91.795984 147.641011 
L 92.221431 147.202916 
L 92.480621 146.982102 
L 92.92111 146.760098 
L 93.027982 147.071144 
L 93.473408 146.624 
L 94.46463 146.171968 
L 94.563197 145.944095 
L 94.907908 145.714969 
L 95.034891 145.484582 
L 96.060625 145.252921 
L 96.158145 145.019977 
L 96.441259 145.33483 
L 96.882526 144.865495 
L 97.011824 143.668891 
L 97.894382 143.180704 
L 98.096447 142.686921 
L 98.126483 142.757109 
L 98.344303 142.255146 
L 98.912062 141.747329 
L 99.200776 141.491193 
L 99.252694 141.233555 
L 99.442556 140.974402 
L 100.016432 140.713719 
L 100.059966 140.451494 
L 100.498026 140.187713 
L 100.668619 139.386893 
L 101.812631 138.844972 
L 102.005575 137.461168 
L 102.361011 137.785672 
L 102.425549 137.503948 
L 102.693395 137.220486 
L 102.913632 137.547258 
L 103.472378 137.26217 
L 103.548022 136.975305 
L 104.198943 135.809748 
L 104.346132 136.139294 
L 104.357168 135.843401 
L 104.464551 136.175154 
L 105.683049 135.577906 
L 105.941859 135.276402 
L 106.174312 134.667539 
L 106.666404 134.360142 
L 106.811782 134.050743 
L 106.952848 134.385311 
L 107.238154 134.073965 
L 107.247447 134.41081 
L 107.556832 133.782102 
L 107.7949 134.121335 
L 107.832325 133.80392 
L 108.162021 133.484383 
L 108.284224 133.826031 
L 109.472441 133.504416 
L 109.784454 133.180628 
L 109.865789 132.854645 
L 110.164641 132.526444 
L 110.259369 132.870653 
L 110.602708 132.207594 
L 110.9804 132.554265 
L 111.235094 131.542508 
L 111.686506 130.856169 
L 112.160401 130.509375 
L 112.992642 130.16013 
L 113.068478 129.454183 
L 113.156976 129.097427 
L 113.302888 129.446618 
L 113.715272 129.087269 
L 114.212256 129.438945 
L 114.365832 129.793169 
L 115.233751 129.43116 
L 115.731085 129.066508 
L 115.982348 128.699185 
L 116.939424 127.956406 
L 118.368397 127.58089 
L 119.635525 126.821451 
L 119.713306 127.177812 
L 119.918992 126.406733 
L 120.113879 126.765573 
L 120.377322 126.375535 
L 120.543352 126.736995 
L 121.05233 126.343858 
L 121.169623 126.707976 
L 121.177599 126.311692 
L 121.704533 125.912335 
L 123.653054 125.104261 
L 123.953042 124.283462 
L 123.953939 124.649512 
L 124.073172 125.018466 
L 124.15996 124.183848 
L 124.212648 124.555377 
L 124.253794 124.132835 
L 125.168421 123.277446 
L 125.441506 122.844514 
L 125.542539 121.967961 
L 126.278285 121.076859 
L 126.837176 120.625739 
L 127.091092 120.170843 
L 127.797474 120.542683 
L 127.995129 120.083598 
L 128.396174 119.620623 
L 128.768655 119.994868 
L 128.999432 119.056234 
L 129.112771 118.580848 
L 130.661687 118.957073 
L 131.084724 119.336569 
L 131.285779 118.856179 
L 131.619962 118.371576 
L 131.841376 117.389504 
L 132.072726 117.770466 
L 132.431538 116.769791 
L 132.591118 117.15311 
L 132.899713 115.094529 
L 133.666096 114.568026 
L 135.49499 114.036648 
L 135.559479 113.500326 
L 136.111419 112.958993 
L 136.145453 112.412576 
L 136.941407 113.17788 
L 137.309073 113.565998 
L 137.319751 113.957831 
L 137.408031 113.403081 
L 137.897293 112.842972 
L 138.112044 112.277424 
L 139.289383 112.670617 
L 139.881776 112.09868 
L 140.289345 111.521108 
L 140.400943 110.937818 
L 141.624188 110.348724 
L 141.830571 109.753739 
L 142.762499 109.152774 
L 142.77658 109.544086 
L 143.235293 108.935956 
L 143.969178 108.32162 
L 144.299167 107.700983 
L 144.379935 107.073949 
L 144.558515 107.464627 
L 144.68022 106.188385 
L 144.905818 105.540188 
L 145.265103 104.885133 
L 146.375907 103.554003 
L 146.700452 102.877703 
L 147.272911 102.194092 
L 147.490211 100.804457 
L 148.193161 99.384111 
L 150.376425 98.662102 
L 151.665847 99.036343 
L 151.914353 97.56392 
L 152.534092 96.81516 
L 152.697306 96.057843 
L 153.551348 96.42787 
L 153.707879 95.659559 
L 153.994029 94.882314 
L 154.752058 94.095978 
L 155.01651 93.300391 
L 155.331364 93.66505 
L 155.81901 92.857427 
L 157.230782 92.040132 
L 159.59004 91.212989 
L 159.641745 91.573838 
L 159.875224 90.733765 
L 160.237699 89.883385 
L 160.251179 90.242708 
L 161.531282 89.378714 
L 162.490065 88.50392 
L 163.670465 87.618123 
L 164.110344 86.721113 
L 164.404103 85.812676 
L 164.972146 84.892592 
L 169.316782 85.235944 
L 170.451931 85.583755 
L 172.237373 85.936113 
L 173.137711 86.293107 
L 173.347069 85.345739 
L 174.180894 84.385739 
L 174.457137 84.739515 
L 174.573952 85.098073 
L 174.750151 84.116796 
L 177.450465 84.476 
L 178.17142 84.840159 
L 178.772877 83.836648 
L 179.171109 82.819102 
L 180.21804 83.179285 
L 180.681253 82.142644 
L 181.231982 82.503141 
L 181.897355 81.44672 
L 183.058419 81.807399 
L 183.900298 82.544669 
L 185.14558 82.921496 
L 185.352888 81.828778 
L 186.361346 80.719628 
L 187.163183 79.593673 
L 187.476432 78.450527 
L 189.86567 78.810354 
L 191.269106 79.17576 
L 191.303786 79.546875 
L 191.651953 79.923835 
L 191.774428 78.737946 
L 192.499678 77.533084 
L 194.146237 77.902923 
L 194.267688 78.278776 
L 194.585485 77.040523 
L 197.157496 75.781802 
L 197.812568 76.149375 
L 199.140436 74.862011 
L 199.750686 75.228019 
L 199.810439 75.978967 
L 200.360687 74.645343 
L 203.719342 75.405916 
L 204.040614 74.031453 
L 204.814871 74.413061 
L 204.852317 73.004582 
L 206.410498 73.38377 
L 208.135564 70.468593 
L 208.321943 70.834589 
L 209.728729 71.587697 
L 209.81645 71.975218 
L 212.643698 70.43237 
L 212.902879 70.816126 
L 215.711395 71.606896 
L 215.95186 72.014384 
L 216.8383 70.392412 
L 217.059766 68.736648 
L 217.29343 69.126791 
L 217.834574 67.422334 
L 219.308943 67.806736 
L 220.427796 69.011193 
L 223.395133 67.209681 
L 223.78022 65.367226 
L 224.652484 65.754516 
L 226.686594 66.150813 
L 227.112442 66.556434 
L 229.249197 66.971713 
L 230.027616 67.396998 
L 230.397368 67.832657 
L 230.636928 65.838668 
L 232.520671 63.79483 
L 232.592741 64.201435 
L 233.935005 64.618466 
L 234.071292 65.046329 
L 235.506053 62.884495 
L 235.967134 63.300648 
L 236.252265 61.056795 
L 238.803457 58.751467 
L 239.240224 56.382102 
L 240.664785 56.730118 
L 241.636396 57.088076 
L 241.764412 57.456411 
L 242.827629 57.835578 
L 243.440135 58.226064 
L 247.364019 55.633342 
L 247.870611 52.960844 
L 248.276294 53.293466 
L 249.521204 53.636648 
L 252.27289 53.9909 
L 253.183406 54.356767 
L 253.49882 54.73483 
L 254.554378 51.775323 
L 254.930912 52.121914 
L 254.950521 49.012724 
L 256.067412 49.322362 
L 256.544509 46.04921 
L 257.895508 46.315436 
L 258.430706 46.591708 
L 259.447567 46.878606 
L 260.606545 43.300819 
L 261.881552 43.533375 
L 264.129998 43.775423 
L 264.275172 44.027557 
L 265.026992 44.290419 
L 265.137881 44.564711 
L 265.645792 44.851193 
L 267.98363 45.150697 
L 268.5086 45.464132 
L 268.530455 45.792492 
L 269.967308 46.498466 
L 273.683442 46.878606 
L 274.103584 47.278753 
L 275.127557 47.70053 
L 278.386724 48.145739 
L 278.902332 48.616388 
L 279.546547 43.300819 
L 280.945188 37.663094 
L 282.03008 37.850284 
L 285.97603 31.673011 
L 347.681818 31.673011 
L 347.681818 31.673011 
" style="fill:none;stroke:#0272a2;stroke-linecap:round;stroke-width:1.75;"/>
   </g>
   <g id="line2d_26">
    <path clip-path="url(#pe81367a733)" d="M 43.318182 32.713394 
L 43.639048 32.713394 
L 43.76893 34.79416 
L 43.853463 34.79416 
L 43.975446 35.834542 
L 48.082087 35.834542 
L 48.160246 36.874925 
L 50.334535 36.874925 
L 50.485367 37.915308 
L 50.688686 37.915308 
L 50.78779 39.996074 
L 53.421768 39.996074 
L 53.589197 41.036456 
L 53.881517 41.036456 
L 54.072712 43.117222 
L 55.404949 43.117222 
L 55.599386 45.197987 
L 55.966317 47.278753 
L 58.703497 47.278753 
L 58.855374 48.319136 
L 59.088083 48.319136 
L 59.512289 49.359519 
L 60.734297 49.359519 
L 60.789996 50.399901 
L 64.6835 50.399901 
L 64.900925 51.440284 
L 66.960046 51.440284 
L 66.987717 52.480667 
L 68.150598 52.480667 
L 68.477807 54.561432 
L 68.657426 54.561432 
L 68.683567 55.601815 
L 68.838925 55.601815 
L 68.856816 56.642198 
L 69.983353 56.642198 
L 70.15549 57.682581 
L 74.14428 57.682581 
L 74.366553 58.722964 
L 75.122007 58.722964 
L 75.222532 59.763346 
L 78.32751 59.763346 
L 78.619781 60.803729 
L 79.130687 60.803729 
L 79.610295 61.844112 
L 81.886463 61.844112 
L 81.888916 62.884495 
L 86.986297 62.884495 
L 87.207822 63.924877 
L 87.74135 63.924877 
L 88.015976 64.96526 
L 89.516295 64.96526 
L 90.428178 66.005643 
L 90.639292 67.046026 
L 91.361656 67.046026 
L 91.795984 68.086408 
L 92.92111 68.086408 
L 93.027982 69.126791 
L 96.158145 69.126791 
L 96.441259 70.167174 
L 98.096447 70.167174 
L 98.186926 71.207557 
L 102.005575 71.207557 
L 102.425549 72.24794 
L 102.693395 72.24794 
L 102.913632 73.288322 
L 104.198943 73.288322 
L 104.464551 75.369088 
L 106.811782 75.369088 
L 106.952848 76.409471 
L 107.238154 76.409471 
L 107.354456 77.449853 
L 107.556832 77.449853 
L 107.832325 78.490236 
L 108.162021 78.490236 
L 108.284224 79.530619 
L 110.164641 79.530619 
L 110.259369 80.571002 
L 110.602708 80.571002 
L 111.06128 81.611385 
L 113.156976 81.611385 
L 113.302888 82.651767 
L 113.715272 82.651767 
L 114.212256 83.69215 
L 114.365832 84.732533 
L 119.635525 84.732533 
L 119.7962 85.772916 
L 119.918992 85.772916 
L 120.113879 86.813298 
L 120.377322 86.813298 
L 120.543352 87.853681 
L 121.05233 87.853681 
L 121.177599 88.894064 
L 123.953042 88.894064 
L 123.953939 89.934447 
L 124.253794 92.015212 
L 127.091092 92.015212 
L 127.797474 93.055595 
L 128.396174 93.055595 
L 128.768655 94.095978 
L 129.112771 94.095978 
L 130.661687 95.136361 
L 131.084724 96.176743 
L 131.841376 96.176743 
L 132.072726 97.217126 
L 132.431538 97.217126 
L 132.690969 98.257509 
L 136.145453 98.257509 
L 136.605361 99.297892 
L 137.309073 101.378657 
L 137.408031 102.41904 
L 138.112044 102.41904 
L 139.289383 103.459423 
L 142.762499 103.459423 
L 142.77658 104.499806 
L 144.379935 104.499806 
L 144.615539 105.540188 
L 150.376425 105.540188 
L 151.80178 106.580571 
L 152.697306 106.580571 
L 153.551348 107.620954 
L 155.01651 107.620954 
L 155.331364 108.661337 
L 159.59004 108.661337 
L 159.641745 109.701719 
L 160.237699 109.701719 
L 160.251179 110.742102 
L 164.972146 110.742102 
L 169.316782 111.782485 
L 170.451931 112.822868 
L 172.237373 113.863251 
L 173.137711 114.903633 
L 174.180894 114.903633 
L 174.457137 115.944016 
L 174.573952 116.984399 
L 174.750151 116.984399 
L 177.450465 118.024782 
L 178.17142 119.065164 
L 179.171109 119.065164 
L 180.21804 120.105547 
L 180.681253 120.105547 
L 181.231982 121.14593 
L 181.897355 121.14593 
L 183.058419 122.186313 
L 183.900298 124.267078 
L 185.14558 125.307461 
L 187.476432 125.307461 
L 189.86567 126.347844 
L 191.269106 127.388227 
L 191.303786 128.428609 
L 191.651953 129.468992 
L 192.499678 129.468992 
L 194.146237 130.509375 
L 194.267688 131.549758 
L 197.157496 131.549758 
L 197.812568 132.590141 
L 199.140436 132.590141 
L 199.750686 133.630523 
L 199.810439 135.711289 
L 200.360687 135.711289 
L 202.196517 136.751672 
L 203.719342 137.792054 
L 204.040614 137.792054 
L 204.852317 138.832437 
L 206.410498 139.87282 
L 208.135564 139.87282 
L 208.321943 140.913203 
L 209.728729 142.993968 
L 209.81645 144.034351 
L 212.643698 144.034351 
L 212.902879 145.074734 
L 214.155281 146.115117 
L 215.711395 147.155499 
L 215.95186 148.195882 
L 217.059766 148.195882 
L 217.29343 149.236265 
L 217.834574 149.236265 
L 219.308943 150.276648 
L 220.427796 153.397796 
L 223.78022 153.397796 
L 224.652484 154.438179 
L 226.686594 155.478562 
L 227.112442 156.518944 
L 229.249197 157.559327 
L 230.027616 158.59971 
L 230.397368 159.640093 
L 232.520671 159.640093 
L 232.592741 160.680475 
L 233.935005 161.720858 
L 234.071292 162.761241 
L 235.506053 162.761241 
L 235.967134 163.801624 
L 239.240224 163.801624 
L 240.664785 164.842007 
L 241.636396 165.882389 
L 241.764412 166.922772 
L 242.827629 167.963155 
L 243.440135 169.003538 
L 247.870611 169.003538 
L 248.276294 170.04392 
L 249.521204 171.084303 
L 252.27289 172.124686 
L 253.183406 173.165069 
L 253.49882 174.205452 
L 254.554378 174.205452 
L 254.950521 175.245834 
L 256.067412 176.286217 
L 256.544509 176.286217 
L 257.895508 177.3266 
L 258.430706 178.366983 
L 259.447567 179.407365 
L 260.606545 179.407365 
L 261.881552 180.447748 
L 264.129998 181.488131 
L 264.275172 182.528514 
L 265.026992 183.568897 
L 265.137881 184.609279 
L 265.645792 185.649662 
L 267.98363 186.690045 
L 268.5086 187.730428 
L 268.530455 188.77081 
L 269.157831 189.811193 
L 269.967308 190.851576 
L 273.683442 191.891959 
L 274.103584 192.932342 
L 275.127557 193.972724 
L 278.386724 195.013107 
L 278.902332 196.05349 
L 280.945188 196.05349 
L 282.03008 197.093873 
L 285.97603 197.093873 
L 286.208623 198.134255 
L 289.422405 199.174638 
L 291.467417 200.215021 
L 292.519184 201.255404 
L 294.728745 202.295786 
L 294.830764 203.336169 
L 295.312278 204.376552 
L 298.165232 205.416935 
L 298.640946 206.457318 
L 299.799583 207.4977 
L 300.214473 208.538083 
L 302.142918 209.578466 
L 304.674378 210.618849 
L 304.913942 211.659231 
L 305.79167 212.699614 
L 312.74833 213.739997 
L 316.429144 214.78038 
L 316.703128 215.820763 
L 320.462582 216.861145 
L 325.059185 217.901528 
L 327.970407 218.941911 
L 328.483041 219.982294 
L 332.012662 222.063059 
L 332.856612 223.103442 
L 335.468461 224.143825 
L 336.780498 225.184208 
L 340.757503 226.22459 
L 340.927865 227.264973 
L 341.466794 228.305356 
L 347.681818 229.345739 
L 347.681818 229.345739 
" style="fill:none;stroke:#9fc377;stroke-linecap:round;stroke-width:1.75;"/>
   </g>
   <g id="patch_3">
    <path d="M 28.1 239.229375 
L 28.1 21.789375 
" style="fill:none;stroke:#cccccc;stroke-linecap:square;stroke-linejoin:miter;stroke-width:1.25;"/>
   </g>
   <g id="patch_4">
    <path d="M 362.9 239.229375 
L 362.9 21.789375 
" style="fill:none;stroke:#cccccc;stroke-linecap:square;stroke-linejoin:miter;stroke-width:1.25;"/>
   </g>
   <g id="patch_5">
    <path d="M 28.1 239.229375 
L 362.9 239.229375 
" style="fill:none;stroke:#cccccc;stroke-linecap:square;stroke-linejoin:miter;stroke-width:1.25;"/>
   </g>
   <g id="patch_6">
    <path d="M 28.1 21.789375 
L 362.9 21.789375 
" style="fill:none;stroke:#cccccc;stroke-linecap:square;stroke-linejoin:miter;stroke-width:1.25;"/>
   </g>
   <g id="text_14">
    <!-- Precision and Recall Curves -->
    <defs>
     <path d="M 7.71875 0 
L 7.71875 71.578125 
L 34.71875 71.578125 
Q 41.84375 71.578125 45.609375 70.90625 
Q 50.875 70.015625 54.4375 67.546875 
Q 58.015625 65.09375 60.1875 60.640625 
Q 62.359375 56.203125 62.359375 50.875 
Q 62.359375 41.75 56.546875 35.421875 
Q 50.734375 29.109375 35.546875 29.109375 
L 17.1875 29.109375 
L 17.1875 0 
z
M 17.1875 37.546875 
L 35.6875 37.546875 
Q 44.875 37.546875 48.734375 40.96875 
Q 52.59375 44.390625 52.59375 50.59375 
Q 52.59375 55.078125 50.3125 58.265625 
Q 48.046875 61.46875 44.34375 62.5 
Q 41.9375 63.140625 35.5 63.140625 
L 17.1875 63.140625 
z
" id="ArialMT-80"/>
     <path d="M 7.859375 0 
L 7.859375 71.578125 
L 39.59375 71.578125 
Q 49.171875 71.578125 54.140625 69.640625 
Q 59.125 67.71875 62.109375 62.828125 
Q 65.09375 57.953125 65.09375 52.046875 
Q 65.09375 44.4375 60.15625 39.203125 
Q 55.21875 33.984375 44.921875 32.5625 
Q 48.6875 30.765625 50.640625 29 
Q 54.78125 25.203125 58.5 19.484375 
L 70.953125 0 
L 59.03125 0 
L 49.5625 14.890625 
Q 45.40625 21.34375 42.71875 24.75 
Q 40.046875 28.171875 37.921875 29.53125 
Q 35.796875 30.90625 33.59375 31.453125 
Q 31.984375 31.78125 28.328125 31.78125 
L 17.328125 31.78125 
L 17.328125 0 
z
M 17.328125 39.984375 
L 37.703125 39.984375 
Q 44.1875 39.984375 47.84375 41.328125 
Q 51.515625 42.671875 53.421875 45.625 
Q 55.328125 48.578125 55.328125 52.046875 
Q 55.328125 57.125 51.640625 60.390625 
Q 47.953125 63.671875 39.984375 63.671875 
L 17.328125 63.671875 
z
" id="ArialMT-82"/>
     <path d="M 58.796875 25.09375 
L 68.265625 22.703125 
Q 65.28125 11.03125 57.546875 4.90625 
Q 49.8125 -1.21875 38.625 -1.21875 
Q 27.046875 -1.21875 19.796875 3.484375 
Q 12.546875 8.203125 8.765625 17.140625 
Q 4.984375 26.078125 4.984375 36.328125 
Q 4.984375 47.515625 9.25 55.828125 
Q 13.53125 64.15625 21.40625 68.46875 
Q 29.296875 72.796875 38.765625 72.796875 
Q 49.515625 72.796875 56.828125 67.328125 
Q 64.15625 61.859375 67.046875 51.953125 
L 57.71875 49.75 
Q 55.21875 57.5625 50.484375 61.125 
Q 45.75 64.703125 38.578125 64.703125 
Q 30.328125 64.703125 24.78125 60.734375 
Q 19.234375 56.78125 16.984375 50.109375 
Q 14.75 43.453125 14.75 36.375 
Q 14.75 27.25 17.40625 20.4375 
Q 20.0625 13.625 25.671875 10.25 
Q 31.296875 6.890625 37.84375 6.890625 
Q 45.796875 6.890625 51.3125 11.46875 
Q 56.84375 16.0625 58.796875 25.09375 
z
" id="ArialMT-67"/>
    </defs>
    <g style="fill:#262626;" transform="translate(120.137187 15.789375)scale(0.12 -0.12)">
     <use xlink:href="#ArialMT-80"/>
     <use x="66.699219" xlink:href="#ArialMT-114"/>
     <use x="100" xlink:href="#ArialMT-101"/>
     <use x="155.615234" xlink:href="#ArialMT-99"/>
     <use x="205.615234" xlink:href="#ArialMT-105"/>
     <use x="227.832031" xlink:href="#ArialMT-115"/>
     <use x="277.832031" xlink:href="#ArialMT-105"/>
     <use x="300.048828" xlink:href="#ArialMT-111"/>
     <use x="355.664062" xlink:href="#ArialMT-110"/>
     <use x="411.279297" xlink:href="#ArialMT-32"/>
     <use x="439.0625" xlink:href="#ArialMT-97"/>
     <use x="494.677734" xlink:href="#ArialMT-110"/>
     <use x="550.292969" xlink:href="#ArialMT-100"/>
     <use x="605.908203" xlink:href="#ArialMT-32"/>
     <use x="633.691406" xlink:href="#ArialMT-82"/>
     <use x="705.908203" xlink:href="#ArialMT-101"/>
     <use x="761.523438" xlink:href="#ArialMT-99"/>
     <use x="811.523438" xlink:href="#ArialMT-97"/>
     <use x="867.138672" xlink:href="#ArialMT-108"/>
     <use x="889.355469" xlink:href="#ArialMT-108"/>
     <use x="911.572266" xlink:href="#ArialMT-32"/>
     <use x="939.355469" xlink:href="#ArialMT-67"/>
     <use x="1011.572266" xlink:href="#ArialMT-117"/>
     <use x="1067.1875" xlink:href="#ArialMT-114"/>
     <use x="1100.488281" xlink:href="#ArialMT-118"/>
     <use x="1150.488281" xlink:href="#ArialMT-101"/>
     <use x="1206.103516" xlink:href="#ArialMT-115"/>
    </g>
   </g>
   <g id="legend_1">
    <g id="line2d_27">
     <path d="M 37.1 210.596563 
L 57.1 210.596563 
" style="fill:none;stroke:#0272a2;stroke-linecap:round;stroke-width:1.75;"/>
    </g>
    <g id="line2d_28"/>
    <g id="text_15">
     <!-- precision -->
     <g style="fill:#262626;" transform="translate(65.1 214.096563)scale(0.1 -0.1)">
      <use xlink:href="#ArialMT-112"/>
      <use x="55.615234" xlink:href="#ArialMT-114"/>
      <use x="88.916016" xlink:href="#ArialMT-101"/>
      <use x="144.53125" xlink:href="#ArialMT-99"/>
      <use x="194.53125" xlink:href="#ArialMT-105"/>
      <use x="216.748047" xlink:href="#ArialMT-115"/>
      <use x="266.748047" xlink:href="#ArialMT-105"/>
      <use x="288.964844" xlink:href="#ArialMT-111"/>
      <use x="344.580078" xlink:href="#ArialMT-110"/>
     </g>
    </g>
    <g id="line2d_29">
     <path d="M 37.1 224.741875 
L 57.1 224.741875 
" style="fill:none;stroke:#9fc377;stroke-linecap:round;stroke-width:1.75;"/>
    </g>
    <g id="line2d_30"/>
    <g id="text_16">
     <!-- recall -->
     <g style="fill:#262626;" transform="translate(65.1 228.241875)scale(0.1 -0.1)">
      <use xlink:href="#ArialMT-114"/>
      <use x="33.300781" xlink:href="#ArialMT-101"/>
      <use x="88.916016" xlink:href="#ArialMT-99"/>
      <use x="138.916016" xlink:href="#ArialMT-97"/>
      <use x="194.53125" xlink:href="#ArialMT-108"/>
      <use x="216.748047" xlink:href="#ArialMT-108"/>
     </g>
    </g>
   </g>
  </g>
 </g>
 <defs>
  <clipPath id="pe81367a733">
   <rect height="217.44" width="334.8" x="28.1" y="21.789375"/>
  </clipPath>
 </defs>
</svg>
